#N canvas 2843 107 767 508 12;
#X obj 252 224 bng 15 250 50 0 empty empty empty 17 7 0 10 -262144
-1 -1;
#X msg 220 223 1.5;
#X msg 604 220 1 2 3;
#X msg 457 221 foo 5 toes;
#X obj 433 222 bng 15 250 50 0 empty empty empty 17 7 0 10 -262144
-1 -1;
#X obj 329 346 print 0;
#X obj 406 348 print 1;
#X msg 342 221 hallo ballo;
#X msg 277 221 compile;
#X msg 96 223 compile other.js;
#X obj 157 325 r mess;
#X obj 158 357 print mess;
#X obj 373 55 t b b;
#X msg 321 88 quit;
#X obj 320 116 s pd;
#X obj 373 22 r test;
#X obj 424 53 r run;
#X obj 478 58 bng 15 250 50 0 empty empty empty 17 7 0 10 -262144 -1
-1;
#X obj 345 309 js test.js 1234 test;
#X msg 540 221 private;
#N canvas 2525 596 833 300 sub 1;
#X obj 209 22 inlet;
#X obj 229 246 outlet;
#X msg 299 132 exception;
#X msg 437 101 setprop prop proptest;
#X msg 438 129 printprop;
#X msg 440 187 getprop prop;
#X msg 440 212 delprop prop;
#X msg 440 156 setprop prop foo 13 37;
#X msg 146 112 jso_out;
#X obj 19 110 r out0;
#X obj 296 42 t b b b b b b b b;
#X obj 31 147 route jsobject;
#X msg 22 201 jso_in jsobject \$1;
#X obj 31 176 list;
#X obj 72 110 r jso;
#X msg 222 109 jso_mess;
#X msg 212 136 jso_mess2;
#X msg 203 164 jso_mess3;
#X obj 190 68 t b b b b;
#X obj 135 259 print;
#X connect 0 0 10 0;
#X connect 2 0 1 0;
#X connect 3 0 1 0;
#X connect 4 0 1 0;
#X connect 5 0 1 0;
#X connect 6 0 1 0;
#X connect 7 0 1 0;
#X connect 8 0 1 0;
#X connect 9 0 11 0;
#X connect 10 0 2 0;
#X connect 10 1 5 0;
#X connect 10 2 6 0;
#X connect 10 3 5 0;
#X connect 10 4 7 0;
#X connect 10 5 4 0;
#X connect 10 6 3 0;
#X connect 10 7 18 0;
#X connect 11 0 13 0;
#X connect 12 0 1 0;
#X connect 12 0 19 0;
#X connect 13 0 12 0;
#X connect 14 0 11 0;
#X connect 15 0 1 0;
#X connect 16 0 1 0;
#X connect 17 0 1 0;
#X connect 18 0 8 0;
#X connect 18 1 17 0;
#X connect 18 2 16 0;
#X connect 18 3 15 0;
#X restore 654 219 pd sub;
#X obj 397 121 t b b b b b b b b b b;
#X obj 552 311 js hjgjhgfjkh.js;
#X obj 554 340 js compile_error.js;
#X obj 554 370 js run_error.js;
#X obj 555 397 js;
#X obj 273 348 s out0;
#X connect 0 0 18 0;
#X connect 1 0 18 0;
#X connect 2 0 18 2;
#X connect 3 0 18 2;
#X connect 4 0 18 1;
#X connect 7 0 18 0;
#X connect 8 0 18 0;
#X connect 9 0 18 0;
#X connect 10 0 11 0;
#X connect 12 0 13 0;
#X connect 12 1 21 0;
#X connect 13 0 14 0;
#X connect 15 0 12 0;
#X connect 16 0 21 0;
#X connect 17 0 21 0;
#X connect 18 0 5 0;
#X connect 18 0 26 0;
#X connect 18 1 6 0;
#X connect 19 0 18 2;
#X connect 20 0 18 2;
#X connect 21 0 9 0;
#X connect 21 1 1 0;
#X connect 21 2 0 0;
#X connect 21 3 8 0;
#X connect 21 4 7 0;
#X connect 21 5 4 0;
#X connect 21 6 3 0;
#X connect 21 7 19 0;
#X connect 21 8 2 0;
#X connect 21 9 20 0;
