#N canvas 497 401 767 508 12;
#X obj 304 223 bng 15 250 50 0 empty empty empty 17 7 0 10 -262144
-1 -1;
#X msg 272 222 1.5;
#X msg 653 218 1 2 3;
#X msg 506 219 foo 5 toes;
#X obj 482 220 bng 15 250 50 0 empty empty empty 17 7 0 10 -262144
-1 -1;
#X obj 329 346 print 0;
#X obj 406 348 print 1;
#X msg 391 219 hallo ballo;
#X msg 329 220 compile;
#X msg 148 222 compile other.js;
#X obj 157 325 r mess;
#X obj 158 357 print mess;
#X obj 373 55 t b b;
#X msg 321 88 quit;
#X obj 320 116 s pd;
#X obj 373 22 r test;
#X obj 424 53 r run;
#X obj 478 58 bng 15 250 50 0 empty empty empty 17 7 0 10 -262144 -1
-1;
#X obj 345 309 js test.js 1234 test;
#X msg 589 219 private;
#X obj 397 121 t b b b b b b b b b;
#X connect 0 0 18 0;
#X connect 1 0 18 0;
#X connect 2 0 18 2;
#X connect 3 0 18 2;
#X connect 4 0 18 1;
#X connect 7 0 18 0;
#X connect 8 0 18 0;
#X connect 9 0 18 0;
#X connect 10 0 11 0;
#X connect 12 0 13 0;
#X connect 12 1 20 0;
#X connect 13 0 14 0;
#X connect 15 0 12 0;
#X connect 16 0 20 0;
#X connect 17 0 20 0;
#X connect 18 0 5 0;
#X connect 18 1 6 0;
#X connect 19 0 18 2;
#X connect 20 0 9 0;
#X connect 20 1 1 0;
#X connect 20 2 0 0;
#X connect 20 3 8 0;
#X connect 20 4 7 0;
#X connect 20 5 4 0;
#X connect 20 6 3 0;
#X connect 20 7 19 0;
#X connect 20 8 2 0;
