#N canvas 2620 403 450 300 12;
#X obj 170 70 bng 15 250 50 0 empty empty empty 17 7 0 10 -262144 -1
-1;
#X obj 197 132 js test.js;
#X msg 124 62 1.5;
#X msg 360 85 1 2 3;
#X msg 260 81 foo 5 toes;
#X obj 236 102 bng 15 250 50 0 empty empty empty 17 7 0 10 -262144
-1 -1;
#X obj 164 219 print 0;
#X obj 252 218 print 1;
#X msg 276 28 hallo ballo;
#X msg 210 18 compile;
#X msg 33 31 compile other.js;
#X obj 50 161 r mess;
#X obj 51 193 print mess;
#X connect 0 0 1 0;
#X connect 1 0 6 0;
#X connect 1 1 7 0;
#X connect 2 0 1 0;
#X connect 3 0 1 2;
#X connect 4 0 1 2;
#X connect 5 0 1 1;
#X connect 8 0 1 0;
#X connect 9 0 1 0;
#X connect 10 0 1 0;
#X connect 11 0 12 0;
