#N canvas 2571 120 756 490 12;
#X obj 232 30 ../run;
#X obj 293 32 bng 15 250 50 0 empty empty empty 17 7 0 10 -262144 -1
-1;
#X obj 277 78 t b;
#X obj 133 148 r mess;
#X obj 134 180 print mess;
#X obj 260 139 js test.js;
#X obj 262 189 print out1;
#X obj 354 189 print out2;
#X connect 0 0 2 0;
#X connect 1 0 2 0;
#X connect 2 0 5 0;
#X connect 3 0 4 0;
#X connect 5 0 6 0;
#X connect 5 1 7 0;
