#N canvas 728 243 756 490 12;
#X obj 232 30 ../run;
#X obj 293 32 bng 15 250 50 0 empty empty empty 17 7 0 10 -262144 -1
-1;
#X msg 271 133 jso_out;
#X obj 144 131 r out0;
#X obj 156 168 route jsobject;
#X msg 147 222 jso_in jsobject \$1;
#X obj 156 197 list;
#X obj 197 131 r jso;
#X msg 361 130 jso_mess;
#X msg 341 161 jso_mess2;
#X msg 328 185 jso_mess3;
#X obj 259 274 print;
#X obj 345 324 s out0;
#X obj 341 274 js test.js;
#X obj 315 89 t b b b b b;
#X obj 442 129 js test2.js;
#X msg 449 198 jso_global;
#X obj 469 90 bng 15 250 50 0 empty empty empty 17 7 0 10 -262144 -1
-1;
#X connect 0 0 14 0;
#X connect 1 0 14 0;
#X connect 2 0 13 0;
#X connect 3 0 4 0;
#X connect 4 0 6 0;
#X connect 5 0 11 0;
#X connect 5 0 13 0;
#X connect 6 0 5 0;
#X connect 7 0 4 0;
#X connect 8 0 13 0;
#X connect 9 0 13 0;
#X connect 10 0 13 0;
#X connect 13 0 12 0;
#X connect 14 0 2 0;
#X connect 14 1 10 0;
#X connect 14 2 9 0;
#X connect 14 3 8 0;
#X connect 14 4 15 0;
#X connect 15 0 16 0;
#X connect 16 0 13 0;
#X connect 17 0 15 0;
