#N canvas 2035 112 756 490 12;
#X obj 232 30 ../run;
#X obj 293 32 bng 15 250 50 0 empty empty empty 17 7 0 10 -262144 -1
-1;
#X obj 277 78 t b;
#X obj 260 139 js test.js;
#X connect 0 0 2 0;
#X connect 1 0 2 0;
#X connect 2 0 3 0;
