#N canvas 2802 562 675 300 12;
#X obj 312 53 bng 15 250 50 0 empty empty empty 17 7 0 10 -262144 -1
-1;
#X msg 314 74 compile;
#X obj 240 253 print js;
#X text 412 204 Load JavaScript file js-help.js;
#X text 412 225 args are available through;
#X text 413 244 property jsarguments in JS;
#X obj 244 202 js js-help.js arg1 arg2;
#X text 371 73 recompile source;
#X text 11 9 js: Execute JavaScript;
#X floatatom 314 102 5 0 0 0 - - -;
#X msg 320 129 1 2 3;
#X text 331 51 call function bang;
#X text 357 99 call function msg_float;
#X text 373 129 call function list;
#X msg 142 61 setprop name test;
#X msg 143 87 getprop name;
#X text 25 59 set JS property;
#X text 26 88 get JS property;
#X msg 322 167 test x y z;
#X text 409 165 call function test;
#X text 41 28 https://github.com/mganss/pdjs;
#X connect 0 0 6 0;
#X connect 1 0 6 0;
#X connect 6 0 2 0;
#X connect 9 0 6 0;
#X connect 10 0 6 0;
#X connect 14 0 6 0;
#X connect 15 0 6 0;
#X connect 18 0 6 0;
